<svg width="14" height="14" viewBox="0 0 14 14" fill="none" xmlns="http://www.w3.org/2000/svg">
<path d="M11.8534 2.14662C11.6579 1.95113 11.3419 1.95113 11.1464 2.14662L7 6.29307L2.8536 2.14662C2.65811 1.95113 2.34212 1.95113 2.14662 2.14662C1.95113 2.34212 1.95113 2.65812 2.14662 2.85362L6.29302 7.00006L2.14662 11.1465C1.95113 11.342 1.95113 11.658 2.14662 11.8535C2.24412 11.951 2.37212 12 2.50011 12C2.62811 12 2.75611 11.951 2.8536 11.8535L7 7.70705L11.1464 11.8535C11.2439 11.951 11.3719 12 11.4999 12C11.6279 12 11.7559 11.951 11.8534 11.8535C12.0489 11.658 12.0489 11.342 11.8534 11.1465L7.70698 7.00006L11.8534 2.85362C12.0489 2.65812 12.0489 2.34212 11.8534 2.14662Z" fill="black" stroke="black" stroke-width="2" stroke-linecap="round" stroke-linejoin="round"/>
</svg>
